<?xml version="1.0" encoding="UTF-8" standalone="no"?>
<!-- Created with Inkscape (http://www.inkscape.org/) -->

<svg
   width="40mm"
   height="21.160999mm"
   viewBox="0 0 40 21.161"
   version="1.1"
   id="svg5"
   inkscape:version="1.1.2 (0a00cf5339, 2022-02-04)"
   sodipodi:docname="gyr.svg"
   xmlns:inkscape="http://www.inkscape.org/namespaces/inkscape"
   xmlns:sodipodi="http://sodipodi.sourceforge.net/DTD/sodipodi-0.dtd"
   xmlns="http://www.w3.org/2000/svg"
   xmlns:svg="http://www.w3.org/2000/svg">
  <sodipodi:namedview
     id="namedview7"
     pagecolor="#505050"
     bordercolor="#ffffff"
     borderopacity="1"
     inkscape:pageshadow="0"
     inkscape:pageopacity="0"
     inkscape:pagecheckerboard="1"
     inkscape:document-units="mm"
     showgrid="false"
     inkscape:zoom="3.6233469"
     inkscape:cx="31.600618"
     inkscape:cy="53.127676"
     inkscape:window-width="2540"
     inkscape:window-height="1394"
     inkscape:window-x="0"
     inkscape:window-y="0"
     inkscape:window-maximized="1"
     inkscape:current-layer="layer1" />
  <defs
     id="defs2" />
  <g
     inkscape:label="Layer 1"
     inkscape:groupmode="layer"
     id="layer1">
    <g
       aria-label="Gyr"
       id="text1155"
       style="fill:#3771c8;stroke-width:0.264583"
       transform="matrix(1.2547136,0,0,1.2547136,-111.7449,-175.74428)">
      <path
         d="m 97.165517,154.58472 c 1.106312,-1.15147 2.280358,-2.41582 3.567293,-3.83823 1.26436,-1.39982 2.21262,-2.50613 2.86738,-3.29636 0.45156,-0.54186 0.72249,-1.17404 0.72249,-1.60302 0,-0.24835 -0.0903,-0.38382 -0.27093,-0.38382 -0.18063,0 -0.45156,0.13547 -0.72249,0.4064 -0.88054,0.83538 -2.61903,2.6416 -4.718764,4.83165 0.2032,-0.63218 0.383823,-1.2192 0.541867,-1.73849 0.02258,-0.0903 0.04516,-0.2032 0.04516,-0.4064 0,-0.69991 -0.451556,-1.17405 -1.106312,-1.17405 -0.270934,0 -0.51929,0.0677 -0.72249,0.18062 -0.2032,0.13547 -0.564445,0.38383 -1.083734,0.74507 -0.51929,0.38382 -0.92569,0.65476 -1.219202,0.83538 -1.241779,0.8128 -2.032002,1.17405 -2.551291,1.17405 -0.699912,0 -1.016001,-0.40641 -1.016001,-1.28694 v -0.0226 c 0,-1.33209 0.677334,-2.95769 1.783646,-4.31236 1.196624,-1.46755 2.686758,-2.37067 3.973693,-2.37067 0.180623,0 0.248356,0.0226 0.338667,0.0452 0.112889,0.97084 0.361245,1.30951 0.812801,1.30951 h 0.06773 c 0.812801,-0.0677 1.6256,-0.90311 1.6256,-1.80622 v -0.11289 c -0.0903,-0.97085 -1.241777,-1.69334 -2.75449,-1.69334 h -0.02258 c -1.919114,0 -3.996271,1.15147 -5.689606,3.07058 -1.603024,1.82881 -2.57387,4.10916 -2.57387,6.0057 v 0.0226 c 0.02258,2.14489 1.219202,3.56729 2.935115,3.56729 0.541867,0 1.151467,-0.18062 1.828801,-0.51929 0.677334,-0.33867 1.625602,-1.016 2.844803,-1.98685 -0.428978,1.15147 -0.835378,2.12232 -1.174045,2.82223 -0.970846,0.90311 -1.512713,1.85138 -1.512713,2.57387 0,0.42898 0.2032,0.79022 0.587023,0.99342 0.180622,0.0903 0.338667,0.13547 0.519289,0.13547 0.72249,0 1.467557,-0.79022 2.077158,-2.16747 z"
         style="fill:#3771c8"
         id="path14659" />
      <path
         d="m 102.76478,156.81992 c 1.80622,-0.54187 3.00284,-1.17404 3.09316,-1.60302 v -0.0677 c 0,-0.27093 -0.33867,-0.42897 -0.99343,-0.42897 -0.45155,0 -1.03858,0.0903 -1.69333,0.2032 0.24835,-0.29351 1.37724,-1.60303 3.40924,-3.88338 2.00943,-2.28036 3.5673,-4.31236 4.67361,-6.07343 0.38382,-0.63218 0.6096,-1.2192 0.6096,-1.67076 0,-0.45156 -0.2032,-0.72249 -0.56444,-0.8128 -0.11289,-0.0226 -0.22578,-0.0452 -0.31609,-0.0452 -0.42898,0 -0.85796,0.13547 -1.30952,0.42898 -0.45155,0.29351 -0.72249,0.6096 -0.8128,0.92569 -0.0226,0.0226 -0.0226,0.0226 -0.0226,0.0903 v 0.0677 c 0,0.24835 0.13547,0.42897 0.40641,0.54186 -0.38383,0.6096 -0.85796,1.28694 -1.42241,2.032 -0.58702,0.74507 -1.44498,1.76107 -2.59644,3.07059 0.0226,-0.13547 0.11289,-0.85796 0.31609,-2.1449 0.2032,-1.28693 0.29351,-2.2352 0.29351,-2.88995 v -0.24836 c -0.0677,-1.06116 -0.47414,-1.64818 -1.10631,-1.64818 h -0.0226 c -0.31609,0.0226 -0.63218,0.22578 -0.92569,0.63218 -0.31609,0.4064 -0.47414,0.8128 -0.47414,1.19662 0,0.24836 0.0903,0.45156 0.24836,0.56445 v 0.33866 c 0,0.38383 -0.0226,0.76765 -0.13547,2.03201 -0.18062,1.6256 -0.2032,2.34809 -0.2032,3.07058 v 0.4064 c 0,0.29351 0.0677,0.54187 0.18062,0.79022 -0.79022,0.88054 -1.49013,1.76107 -2.12231,2.59645 -0.36124,0.45155 -0.54187,0.94827 -0.54187,1.39982 0,0.74507 0.51929,1.24178 1.30952,1.24178 0.27093,0 0.47413,-0.0226 0.72249,-0.11289 z"
         style="fill:#3771c8"
         id="path14661" />
      <path
         d="m 113.57955,150.74649 c 0.0226,-0.0903 0.0677,-0.18062 0.13547,-0.36124 0.0677,-0.18062 0.11289,-0.27093 0.13547,-0.36125 1.24178,-1.60302 2.66418,-3.048 4.4704,-4.51556 0.29351,0.47414 0.58702,0.72249 1.016,0.8128 0.11289,0.0226 0.22578,0.0677 0.33867,0.0677 0.33867,0 0.58702,-0.22578 0.58702,-0.51929 0,-0.0677 -0.0226,-0.13547 -0.0452,-0.22578 -0.2032,-0.47413 -0.36125,-0.90311 -0.45156,-1.26436 0.79022,-0.65475 1.17405,-1.24178 1.17405,-1.69333 0,-0.47414 -0.4064,-0.76765 -1.03858,-0.76765 -0.99343,0 -1.96427,0.74507 -2.23521,1.82881 -0.65475,0.56444 -1.39982,1.28693 -2.30293,2.28035 0.0226,-0.0677 0.0903,-0.22577 0.11289,-0.29351 0.38382,-0.63218 0.6096,-1.19662 0.6096,-1.71591 0,-0.74507 -0.49671,-1.26436 -1.19663,-1.26436 -0.56444,0 -0.99342,0.31609 -1.08373,0.85796 -0.65476,1.87396 -1.39982,3.92854 -2.09974,5.75734 -0.51928,0.79022 -0.79022,1.49013 -0.79022,2.09973 0,0.56445 0.27094,0.94827 0.79022,1.06116 0.18063,0.0226 0.24836,0.0452 0.31609,0.0452 0.63218,0 1.01601,-0.45156 1.55787,-1.82881 z"
         style="fill:#3771c8"
         id="path14663" />
    </g>
  </g>
</svg>
